<?xml version="1.0" encoding="utf-8"?>
<!-- Generator: Adobe Illustrator 19.1.0, SVG Export Plug-In . SVG Version: 6.00 Build 0)  -->
<svg version="1.1" id="Layer_1" xmlns="http://www.w3.org/2000/svg" xmlns:xlink="http://www.w3.org/1999/xlink" x="0px" y="0px"
	 viewBox="-134 256.9 571.9 81.4" style="enable-background:new -134 256.9 571.9 81.4;" xml:space="preserve">
<style type="text/css">
	.st0{fill:#004B7E;}
	.st1{fill:#ED184A;}
</style>
<g>
	<path class="st0" d="M-60.8,338.3h-65c-4.5,0-8.2-3.7-8.2-8.2v-65c0-4.5,3.7-8.2,8.2-8.2h65c4.5,0,8.2,3.7,8.2,8.2v65
		C-52.6,334.6-56.3,338.3-60.8,338.3z M-125.8,258.9c-3.4,0-6.2,2.8-6.2,6.2v65c0,3.4,2.8,6.2,6.2,6.2h65c3.4,0,6.2-2.8,6.2-6.2v-65
		c0-3.4-2.8-6.2-6.2-6.2C-60.8,258.9-125.8,258.9-125.8,258.9z"/>
	<path class="st0" d="M437.3,275.4H398c-3.3,0-6.3,1.2-9,3.5c-2.6,2.3-3.9,5.2-3.9,8.5v2.2c0,3.5,1.3,6.4,3.8,8.6
		c2.5,2.2,5.6,3.3,9.1,3.3h26.3c3,0,4.6,1.3,4.6,3.9v2.3c0,1.1-0.5,2.1-1.4,2.8c-1,0.8-2,1.2-3.1,1.2h-39.3v7.9h39.3
		c3.3,0,6.3-1.2,9-3.5c2.6-2.3,4-5.1,4-8.5v-2.3c0-3.5-1.3-6.4-3.9-8.7c-2.5-2.1-5.5-3.2-9.1-3.2H398c-3.1,0-4.6-1.3-4.6-4v-2.2
		c0-1.1,0.5-2,1.4-2.8c1-0.8,2-1.2,3.1-1.2h35.7L437.3,275.4z M380.7,311.7h-38.9c-3,0-4.6-1.3-4.6-4v-20.3c0-1.1,0.5-2,1.4-2.8
		c1-0.8,2-1.2,3.1-1.2H377l3.6-7.9h-38.9c-3.3,0-6.3,1.2-9,3.5c-2.6,2.3-4,5.2-4,8.5v20.4c0,3.5,1.3,6.4,3.8,8.6
		c2.5,2.2,5.6,3.3,9.1,3.3h38.9v-8.1H380.7z M323.5,275.4h-8.4v44.3h8.4V275.4z M310.1,275.4h-8.4v32.4c0,2.6-1.5,4-4.5,4h-0.3
		c-1.9,0-3-0.5-4.6-4l-9-20.4c-2.1-4.7-3.1-7.7-5.6-9.9c-2.2-1.9-3.8-2.1-7.3-2.1h-2.2c-3.5,0-6.6,1.1-9.1,3.4
		c-2.5,2.2-3.8,5.1-3.8,8.6v32.4h8.4v-32.4c0-2.7,1.5-4,4.6-4h1.7c3,0,3.3,1.3,4.6,4l9,20.4c2.4,4.9,3.7,8.3,6.4,10.3
		c2.8,2.1,6.6,1.6,7,1.6h0.3c3.6,0,6.6-1.1,9.1-3.3s3.8-5.1,3.8-8.6v-32.4H310.1z M238.4,311.7h-27.9c-3,0-4.6-1.3-4.6-4v-20.3
		c0-1.1,0.5-2,1.4-2.8c1-0.8,2-1.2,3.1-1.2h27.9c1.1,0,2.2,0.4,3.1,1.2c1,0.8,1.4,1.8,1.4,2.8v20.4
		C242.9,310.4,241.4,311.7,238.4,311.7 M251.3,287.4c0-3.3-1.3-6.1-4-8.5c-2.6-2.3-5.6-3.5-9-3.5h-27.9c-3.3,0-6.3,1.2-9,3.5
		c-2.6,2.3-4,5.2-4,8.5v20.4c0,3.5,1.3,6.4,3.8,8.6c2.5,2.2,5.6,3.3,9.1,3.3h27.9c3.5,0,6.6-1.1,9.1-3.3s3.8-5.1,3.8-8.6v-20.4
		H251.3z M191.5,305.4c0-2.8-1.1-5.4-3.3-7.8c2.2-2.3,3.3-4.9,3.3-7.8v-2.4c0-3.5-1.3-6.4-3.8-8.6c-2.5-2.2-5.6-3.3-9.2-3.3h-41.2
		v44.2h8.3v-36.2h32.8c3,0,4.6,1.3,4.6,4v2.4c0,2.5-1.5,3.7-4.6,3.7h-33.9v8.1h33.9c1.2,0,2.3,0.3,3.2,1c0.9,0.6,1.4,1.5,1.4,2.7
		v14.4h8.4v-14.4H191.5z M133.3,275.4H81.8v7.9h21.5v36.4h8.3v-36.4h21.7V275.4z M77.3,287.5c0-3.5-1.3-6.4-3.8-8.6
		s-5.6-3.3-9.2-3.3H23.2v44.2h8.3v-36.3h32.8c3,0,4.6,1.3,4.6,4v2.4c0,2.5-1.5,3.7-4.6,3.7H30.4v8.1h33.9c3.6,0,6.7-1.1,9.2-3.3
		c2.5-2.2,3.8-5,3.8-8.6L77.3,287.5L77.3,287.5z M5.7,311.7h-27.9c-3,0-4.6-1.3-4.6-4v-20.3c0-1.1,0.5-2,1.4-2.8
		c1-0.8,2-1.2,3.1-1.2H5.6c1.1,0,2.2,0.4,3.1,1.2c1,0.8,1.4,1.8,1.4,2.8v20.4C10.2,310.4,8.7,311.7,5.7,311.7 M18.6,287.4
		c0-3.3-1.3-6.1-4-8.5c-2.6-2.3-5.6-3.5-9-3.5h-27.9c-3.3,0-6.3,1.2-9,3.5c-2.6,2.3-4,5.2-4,8.5v20.4c0,3.5,1.3,6.4,3.8,8.6
		c2.5,2.2,5.6,3.3,9.1,3.3H5.5c3.5,0,6.6-1.1,9.1-3.3s3.8-5.1,3.8-8.6v-20.4H18.6z"/>
	<g>
		<g>
			<path class="st0" d="M-68.7,291.7c-1.7,1.4-3.5,2.4-5.7,2.9v5.7c0,2.8-1.6,4.2-4.8,4.2l-28.4-0.1c-0.2,0-0.7,0-1.1,0
				c-0.6,0-1.2,0-1.5,0v7.8c0.3,0,0.9,0,1.9,0h0.7h28.5c3.6,0,6.7-1.1,9.2-3.4c2.5-2.2,3.8-5.1,3.8-8.6V288
				C-66.7,289.4-67.6,290.7-68.7,291.7z"/>
		</g>
		<g>
			<path class="st0" d="M-107.6,275.2h28.5c1.2,0,2.3,0.4,3.3,1.3c0.5,0.4,0.8,0.8,1,1.2c0.1,0.4,0.2,0.9,0.2,1.5v2.8
				c0,2.5-1.5,3.8-4.6,3.8h-31v8.2h31c1.1,0,2.1-0.1,3.1-0.3c5.9-1.4,9.9-6.4,9.9-10.6v-3.7l0,0c0-0.7-0.1-1.4-0.2-2.1
				c-0.4-2.5-1.6-4.6-3.6-6.4c-1.6-1.4-3.5-2.4-5.5-2.9c-1.2-0.3-2.4-0.5-3.7-0.5h-28.4c-3.4,0-6.4,1.2-9,3.5
				c-2.6,2.3-3.8,4.5-3.9,6.8l0,0v34.3h8.5v-34.3l0,0c0.2-1,0.6-1.4,1.1-1.7c0.9-0.7,1.9-0.8,2.9-0.8L-107.6,275.2z"/>
		</g>
	</g>
	<g>
		<g>
			<path class="st1" d="M-120.2,327.6v-10h9.4c1,0,1.7,0.2,2.2,0.7s0.8,1.2,0.8,2v0.5c0,0.9-0.2,1.6-0.7,2c-0.5,0.5-1.2,0.7-2.2,0.7
				h-7.9v-1.8h7.9c0.4,0,0.7-0.1,0.8-0.2s0.2-0.4,0.2-0.7v-0.5c0-0.6-0.4-0.9-1.1-0.9h-7.5v8.3L-120.2,327.6L-120.2,327.6z"/>
			<path class="st1" d="M-118.1,327.9h-2.4v-10.6h9.6c1,0,1.8,0.3,2.4,0.8s0.8,1.3,0.8,2.2v0.5c0,1-0.3,1.7-0.8,2.2
				s-1.3,0.8-2.4,0.8h-7.2C-118.1,323.8-118.1,327.9-118.1,327.9z M-120,327.4h1.4v-3.6h-0.4v-2.3h0.4v-2.3h7.7
				c1.1,0,1.3,0.7,1.3,1.2v0.5c0,0.4-0.1,0.7-0.3,0.9c-0.2,0.2-0.5,0.3-1,0.3h-7.2v1.3h7.2c0.9,0,1.6-0.2,2.1-0.6
				c0.4-0.4,0.6-1,0.6-1.8v-0.5c0-0.8-0.2-1.4-0.7-1.8c-0.5-0.4-1.1-0.7-2-0.7h-9.1V327.4z M-118.1,321.5h7.2c0.5,0,0.6-0.1,0.7-0.1
				c0.1-0.1,0.1-0.3,0.1-0.5v-0.5c0-0.3-0.1-0.7-0.8-0.7h-7.2C-118.1,319.7-118.1,321.5-118.1,321.5z"/>
		</g>
		<g>
			<path class="st1" d="M-95,327.6h-7.5c-2.5,0-2.9-0.5-2.9-2.7v-7.4h1.9v7.4c0,0.6,0.3,0.9,1,0.9h7.5V327.6z"/>
			<path class="st1" d="M-94.7,327.9h-7.7c-2.6,0-3.2-0.6-3.2-3v-7.6h2.4v7.6c0,0.3,0.1,0.6,0.8,0.6h7.7
				C-94.7,325.5-94.7,327.9-94.7,327.9z M-105.1,317.8v7.1c0,2,0.3,2.5,2.7,2.5h7.2v-1.3h-7.2c-1.1,0-1.3-0.7-1.3-1.1v-7.1h-1.4
				V317.8z"/>
		</g>
		<g>
			<path class="st1" d="M-82.6,325.8c0.1,0,0.2-0.1,0.2-0.1c0.1-0.1,0.1-0.1,0.1-0.2s0-0.2,0-0.4v-7.5h1.9v7.5c0,0.9-0.2,1.5-0.6,2
				c-0.4,0.4-1.1,0.6-2,0.6h-6.4c-0.9,0-1.6-0.2-2-0.6c-0.4-0.4-0.6-1.1-0.6-2v-7.5h1.9v7.5c0,0.2,0,0.3,0,0.4s0,0.2,0.1,0.2
				c0.1,0.1,0.1,0.1,0.2,0.1s0.2,0,0.4,0h6.4C-82.9,325.8-82.7,325.8-82.6,325.8z"/>
			<path class="st1" d="M-83,327.9h-6.4c-1,0-1.8-0.2-2.2-0.7c-0.5-0.5-0.7-1.2-0.7-2.1v-7.7h2.3v7.7c0,0.1,0,0.3,0,0.3v0.1
				c0,0,0,0,0.1,0s0.2,0,0.4,0h6.5c0.2,0,0.3,0,0.4,0l0,0h0.1v-0.1c0-0.1,0-0.2,0-0.3v-7.7h2.4v7.7c0,0.9-0.2,1.7-0.7,2.1
				C-81.3,327.6-82,327.9-83,327.9z M-91.9,317.8v7.2c0,0.8,0.2,1.4,0.6,1.8c0.4,0.4,1,0.6,1.9,0.6h6.4c0.9,0,1.5-0.2,1.9-0.6
				c0.4-0.4,0.6-1,0.6-1.8v-7.2H-82v7.2c0,0.2,0,0.3,0,0.4s-0.1,0.3-0.2,0.4c-0.1,0.1-0.2,0.2-0.4,0.2c-0.1,0-0.3,0-0.5,0h-6.4
				c-0.2,0-0.3,0-0.5,0c-0.2,0-0.3-0.1-0.4-0.2c-0.1-0.1-0.1-0.2-0.2-0.4c0-0.1,0-0.2,0-0.4v-7.2C-90.6,317.8-91.9,317.8-91.9,317.8
				z"/>
		</g>
		<g>
			<path class="st1" d="M-78.1,325.8h8.8c0.1,0,0.3,0,0.4-0.1c0.1,0,0.2-0.1,0.3-0.2c0.1-0.1,0.2-0.2,0.2-0.3
				c0.1-0.1,0.1-0.2,0.1-0.4v-0.5c0-0.6-0.4-0.9-1.1-0.9h-6c-0.5,0-0.9-0.1-1.3-0.2c-0.4-0.1-0.7-0.3-0.9-0.6
				c-0.2-0.3-0.4-0.4-0.5-0.7c-0.1-0.3-0.2-0.7-0.2-1.1v-0.5c0-0.4,0.1-0.7,0.2-1.1c0.1-0.3,0.3-0.6,0.6-0.9
				c0.2-0.2,0.6-0.4,0.9-0.6c0.4-0.1,0.8-0.2,1.3-0.2h8.8l-0.8,1.8h-7.9c-0.1,0-0.2,0-0.4,0.1c-0.1,0-0.2,0.1-0.3,0.2
				c-0.1,0.1-0.2,0.2-0.2,0.3c-0.1,0.1-0.1,0.2-0.1,0.4v0.5c0,0.6,0.3,0.9,1,0.9h6c0.5,0,0.9,0.1,1.3,0.2s0.7,0.3,0.9,0.6
				c0.2,0.2,0.4,0.5,0.5,0.9c0.1,0.3,0.2,0.7,0.2,1.1v0.4c0,0.4-0.1,0.8-0.2,1.1s-0.3,0.6-0.6,0.9c-0.2,0.2-0.6,0.4-0.9,0.6
				c-0.4,0.1-0.8,0.2-1.3,0.2h-8.8C-78.1,327.7-78.1,325.8-78.1,325.8z"/>
			<path class="st1" d="M-69.3,327.9h-9v-2.3h9c0.1,0,0.2,0,0.3-0.1c0.1,0,0.2-0.1,0.3-0.2c0.1-0.1,0.1-0.1,0.2-0.2
				c0-0.1,0.1-0.1,0.1-0.2v-0.5c0-0.3-0.1-0.6-0.8-0.6h-6c-0.5,0-1-0.1-1.4-0.2s-0.7-0.4-1-0.6c-0.3-0.3-0.5-0.6-0.6-1
				c-0.1-0.4-0.2-0.8-0.2-1.2v-0.5c0-0.4,0.1-0.8,0.2-1.1c0.1-0.4,0.4-0.7,0.6-0.9c0.3-0.3,0.6-0.5,1-0.6c0.4-0.2,0.8-0.2,1.4-0.2
				h9.1l-1.1,2.3h-8.1c-0.1,0-0.2,0-0.3,0.1c-0.1,0-0.2,0.1-0.3,0.2c0-0.2-0.1-0.1-0.1-0.1c0,0.1-0.1,0.1-0.1,0.2v0.5
				c0,0.3,0.1,0.7,0.8,0.7h6c0.5,0,1,0.1,1.4,0.2c0.4,0.1,0.7,0.4,1,0.6c0.3,0.3,0.5,0.6,0.6,1c0.1,0.4,0.2,0.7,0.2,1.2v0.5
				c0,0.4-0.1,0.8-0.2,1.2s-0.4,0.7-0.6,0.9c-0.3,0.3-0.6,0.5-1,0.6C-68.4,327.8-68.8,327.9-69.3,327.9z M-77.9,327.4h8.5
				c0.4,0,0.8-0.1,1.2-0.2c0.3-0.1,0.6-0.3,0.8-0.5c0.2-0.2,0.4-0.5,0.5-0.8c0.1-0.3,0.2-0.6,0.2-1v-0.5c0-0.3-0.1-0.7-0.2-1
				c-0.1-0.3-0.3-0.5-0.5-0.8c-0.2-0.2-0.5-0.4-0.8-0.5c-0.3-0.1-0.7-0.2-1.2-0.2h-6c-1.1,0-1.3-0.7-1.3-1.2v-0.5
				c0-0.2,0-0.3,0.1-0.5c0.1-0.1,0.2-0.3,0.3-0.4s0.3-0.2,0.4-0.2c0.2-0.1,0.3-0.1,0.5-0.1h7.8l0.6-1.3h-8.4c-0.4,0-0.8,0.1-1.2,0.2
				c-0.3,0.1-0.6,0.3-0.8,0.5s-0.4,0.5-0.5,0.8c-0.1,0.3-0.2,0.6-0.2,1v0.5c0,0.4,0.1,0.7,0.2,1c0.1,0.3,0.3,0.6,0.5,0.8
				s0.5,0.4,0.8,0.5c0.3,0.1,0.8,0.2,1.2,0.2h6c1.1,0,1.3,0.7,1.3,1.1v0.6c0,0.2,0,0.3-0.1,0.5c-0.1,0.1-0.2,0.3-0.3,0.4
				c-0.1,0.1-0.3,0.2-0.4,0.2c-0.2,0.1-0.3,0.1-0.5,0.1h-8.5V327.4z"/>
		</g>
	</g>
</g>
</svg>
